<mxfile host="app.diagrams.net" modified="2022-03-16T02:37:22.431Z" agent="5.0 (Windows NT 10.0; Win64; x64) AppleWebKit/537.36 (KHTML, like Gecko) Chrome/99.0.4844.51 Safari/537.36" etag="VxRK_uSx0Q3Uio3tgoKC" version="17.1.2" type="github">
  <diagram id="C5RBs43oDa-KdzZeNtuy" name="Page-1">
    <mxGraphModel dx="1673" dy="3325" grid="1" gridSize="10" guides="1" tooltips="1" connect="1" arrows="1" fold="1" page="1" pageScale="1" pageWidth="827" pageHeight="1169" math="0" shadow="0">
      <root>
        <mxCell id="WIyWlLk6GJQsqaUBKTNV-0" />
        <mxCell id="WIyWlLk6GJQsqaUBKTNV-1" parent="WIyWlLk6GJQsqaUBKTNV-0" />
        <mxCell id="hI4Vrk3YfiVBAEvMPHJm-42" value="招商" style="swimlane;horizontal=0;" vertex="1" parent="WIyWlLk6GJQsqaUBKTNV-1">
          <mxGeometry y="-1170" width="444" height="1180" as="geometry">
            <mxRectangle x="100" y="320" width="30" height="50" as="alternateBounds" />
          </mxGeometry>
        </mxCell>
        <mxCell id="hI4Vrk3YfiVBAEvMPHJm-3" value="招商合同" style="rounded=1;whiteSpace=wrap;html=1;" vertex="1" parent="hI4Vrk3YfiVBAEvMPHJm-42">
          <mxGeometry x="80" y="110" width="120" height="60" as="geometry" />
        </mxCell>
        <mxCell id="hI4Vrk3YfiVBAEvMPHJm-11" value="新建合同" style="text;html=1;align=center;verticalAlign=middle;resizable=0;points=[];autosize=1;strokeColor=none;fillColor=none;" vertex="1" parent="hI4Vrk3YfiVBAEvMPHJm-42">
          <mxGeometry x="220" y="80" width="60" height="20" as="geometry" />
        </mxCell>
        <mxCell id="hI4Vrk3YfiVBAEvMPHJm-13" value="" style="edgeStyle=orthogonalEdgeStyle;rounded=0;orthogonalLoop=1;jettySize=auto;html=1;" edge="1" parent="hI4Vrk3YfiVBAEvMPHJm-42" source="hI4Vrk3YfiVBAEvMPHJm-11" target="hI4Vrk3YfiVBAEvMPHJm-12">
          <mxGeometry relative="1" as="geometry" />
        </mxCell>
        <mxCell id="hI4Vrk3YfiVBAEvMPHJm-10" value="" style="shape=curlyBracket;whiteSpace=wrap;html=1;rounded=1;" vertex="1" parent="hI4Vrk3YfiVBAEvMPHJm-42">
          <mxGeometry x="200" y="80" width="20" height="120" as="geometry" />
        </mxCell>
        <mxCell id="hI4Vrk3YfiVBAEvMPHJm-50" style="edgeStyle=orthogonalEdgeStyle;rounded=0;orthogonalLoop=1;jettySize=auto;html=1;entryX=0.5;entryY=1;entryDx=0;entryDy=0;" edge="1" parent="hI4Vrk3YfiVBAEvMPHJm-42" source="hI4Vrk3YfiVBAEvMPHJm-12" target="hI4Vrk3YfiVBAEvMPHJm-49">
          <mxGeometry relative="1" as="geometry" />
        </mxCell>
        <mxCell id="hI4Vrk3YfiVBAEvMPHJm-12" value="发起审批" style="text;html=1;align=center;verticalAlign=middle;resizable=0;points=[];autosize=1;strokeColor=none;fillColor=none;" vertex="1" parent="hI4Vrk3YfiVBAEvMPHJm-42">
          <mxGeometry x="220" y="180" width="60" height="20" as="geometry" />
        </mxCell>
        <mxCell id="hI4Vrk3YfiVBAEvMPHJm-54" style="edgeStyle=orthogonalEdgeStyle;rounded=0;orthogonalLoop=1;jettySize=auto;html=1;entryX=0.778;entryY=-0.017;entryDx=0;entryDy=0;entryPerimeter=0;" edge="1" parent="hI4Vrk3YfiVBAEvMPHJm-42" source="hI4Vrk3YfiVBAEvMPHJm-49" target="hI4Vrk3YfiVBAEvMPHJm-12">
          <mxGeometry relative="1" as="geometry" />
        </mxCell>
        <mxCell id="hI4Vrk3YfiVBAEvMPHJm-55" value="驳回" style="edgeLabel;html=1;align=center;verticalAlign=middle;resizable=0;points=[];" vertex="1" connectable="0" parent="hI4Vrk3YfiVBAEvMPHJm-54">
          <mxGeometry x="-0.2377" y="-1" relative="1" as="geometry">
            <mxPoint as="offset" />
          </mxGeometry>
        </mxCell>
        <mxCell id="hI4Vrk3YfiVBAEvMPHJm-49" value="" style="rhombus;whiteSpace=wrap;html=1;" vertex="1" parent="hI4Vrk3YfiVBAEvMPHJm-42">
          <mxGeometry x="344" y="120" width="70" height="40" as="geometry" />
        </mxCell>
        <mxCell id="hI4Vrk3YfiVBAEvMPHJm-44" value="营运" style="swimlane;horizontal=0;startSize=23;" vertex="1" parent="WIyWlLk6GJQsqaUBKTNV-1">
          <mxGeometry x="570" y="-1170" width="460" height="1230" as="geometry">
            <mxRectangle x="100" y="320" width="30" height="50" as="alternateBounds" />
          </mxGeometry>
        </mxCell>
        <mxCell id="hI4Vrk3YfiVBAEvMPHJm-39" value="合同台账" style="rounded=1;whiteSpace=wrap;html=1;strokeWidth=2;fillWeight=4;hachureGap=8;hachureAngle=45;fillColor=#1ba1e2;sketch=1;" vertex="1" parent="hI4Vrk3YfiVBAEvMPHJm-44">
          <mxGeometry x="90" y="110" width="120" height="60" as="geometry" />
        </mxCell>
        <mxCell id="hI4Vrk3YfiVBAEvMPHJm-29" value="生成费用" style="text;html=1;align=center;verticalAlign=middle;resizable=0;points=[];autosize=1;strokeColor=none;fillColor=none;" vertex="1" parent="hI4Vrk3YfiVBAEvMPHJm-44">
          <mxGeometry x="230" y="80" width="60" height="20" as="geometry" />
        </mxCell>
        <mxCell id="hI4Vrk3YfiVBAEvMPHJm-30" value="审批通过" style="text;html=1;align=center;verticalAlign=middle;resizable=0;points=[];autosize=1;strokeColor=none;fillColor=none;" vertex="1" parent="hI4Vrk3YfiVBAEvMPHJm-44">
          <mxGeometry x="230" y="180" width="60" height="20" as="geometry" />
        </mxCell>
        <mxCell id="hI4Vrk3YfiVBAEvMPHJm-31" value="" style="edgeStyle=orthogonalEdgeStyle;rounded=0;orthogonalLoop=1;jettySize=auto;html=1;" edge="1" parent="hI4Vrk3YfiVBAEvMPHJm-44" source="hI4Vrk3YfiVBAEvMPHJm-29" target="hI4Vrk3YfiVBAEvMPHJm-30">
          <mxGeometry relative="1" as="geometry">
            <Array as="points">
              <mxPoint x="260" y="160" />
              <mxPoint x="260" y="160" />
            </Array>
          </mxGeometry>
        </mxCell>
        <mxCell id="hI4Vrk3YfiVBAEvMPHJm-58" value="" style="shape=curlyBracket;whiteSpace=wrap;html=1;rounded=1;" vertex="1" parent="hI4Vrk3YfiVBAEvMPHJm-44">
          <mxGeometry x="210" y="80" width="20" height="120" as="geometry" />
        </mxCell>
        <mxCell id="hI4Vrk3YfiVBAEvMPHJm-67" value="推送应收" style="whiteSpace=wrap;html=1;" vertex="1" parent="hI4Vrk3YfiVBAEvMPHJm-44">
          <mxGeometry x="320" y="110" width="120" height="60" as="geometry" />
        </mxCell>
        <mxCell id="hI4Vrk3YfiVBAEvMPHJm-68" value="" style="edgeStyle=orthogonalEdgeStyle;rounded=0;orthogonalLoop=1;jettySize=auto;html=1;" edge="1" parent="hI4Vrk3YfiVBAEvMPHJm-44" source="hI4Vrk3YfiVBAEvMPHJm-30" target="hI4Vrk3YfiVBAEvMPHJm-67">
          <mxGeometry relative="1" as="geometry" />
        </mxCell>
        <mxCell id="hI4Vrk3YfiVBAEvMPHJm-45" value="财务" style="swimlane;horizontal=0;startSize=23;" vertex="1" parent="WIyWlLk6GJQsqaUBKTNV-1">
          <mxGeometry x="1120" y="-1170" width="510" height="1170" as="geometry">
            <mxRectangle x="100" y="320" width="30" height="50" as="alternateBounds" />
          </mxGeometry>
        </mxCell>
        <mxCell id="hI4Vrk3YfiVBAEvMPHJm-32" value="应收明细" style="rounded=1;whiteSpace=wrap;html=1;" vertex="1" parent="hI4Vrk3YfiVBAEvMPHJm-45">
          <mxGeometry x="90" y="110" width="120" height="60" as="geometry" />
        </mxCell>
        <mxCell id="hI4Vrk3YfiVBAEvMPHJm-51" style="edgeStyle=orthogonalEdgeStyle;rounded=0;orthogonalLoop=1;jettySize=auto;html=1;entryX=0;entryY=0.5;entryDx=0;entryDy=0;" edge="1" parent="WIyWlLk6GJQsqaUBKTNV-1" source="hI4Vrk3YfiVBAEvMPHJm-49" target="hI4Vrk3YfiVBAEvMPHJm-39">
          <mxGeometry relative="1" as="geometry" />
        </mxCell>
        <mxCell id="hI4Vrk3YfiVBAEvMPHJm-52" value="审批通过" style="edgeLabel;html=1;align=center;verticalAlign=middle;resizable=0;points=[];" vertex="1" connectable="0" parent="hI4Vrk3YfiVBAEvMPHJm-51">
          <mxGeometry x="-0.4167" relative="1" as="geometry">
            <mxPoint x="33" as="offset" />
          </mxGeometry>
        </mxCell>
        <mxCell id="hI4Vrk3YfiVBAEvMPHJm-69" style="edgeStyle=orthogonalEdgeStyle;rounded=0;orthogonalLoop=1;jettySize=auto;html=1;entryX=0;entryY=0.5;entryDx=0;entryDy=0;" edge="1" parent="WIyWlLk6GJQsqaUBKTNV-1" source="hI4Vrk3YfiVBAEvMPHJm-67" target="hI4Vrk3YfiVBAEvMPHJm-32">
          <mxGeometry relative="1" as="geometry" />
        </mxCell>
      </root>
    </mxGraphModel>
  </diagram>
</mxfile>
